<?xml version="1.0" standalone="no"?>
<!DOCTYPE svg PUBLIC "-//W3C//DTD SVG 1.1//EN" "http://www.w3.org/Graphics/SVG/1.1/DTD/svg11.dtd" >
<svg xmlns="http://www.w3.org/2000/svg">
<metadata>Generated by IcoMoon</metadata>
<defs>
<font id="icomoon" horiz-adv-x="1024">
<font-face units-per-em="1024" ascent="960" descent="-64" />
<missing-glyph horiz-adv-x="1024" />
<glyph unicode="&#x20;" horiz-adv-x="512" d="" />
<glyph unicode="&#xe900;" glyph-name="android" horiz-adv-x="896" d="M82.462 631.082c-34.41 0-62.403-27.989-62.403-62.393v-261.060c0-34.405 27.993-62.393 62.403-62.393s62.403 27.989 62.403 62.393v261.060c0 34.405-27.993 62.393-62.403 62.393zM813.538 631.082c-34.41 0-62.403-27.989-62.403-62.393v-261.060c0-34.405 27.993-62.393 62.403-62.393s62.403 27.989 62.403 62.393v261.060c0 34.405-27.993 62.393-62.403 62.393zM168.471 215.488c0-37.316 30.257-67.569 67.578-67.569h33.789v-138.208c0-40.71 33.006-73.711 73.722-73.711s73.722 33.001 73.722 73.711v138.208h72.754v-138.208c0-34.405 27.993-62.393 62.403-62.393s62.403 27.989 62.403 62.393v138.208h45.109c37.322 0 67.578 30.252 67.578 67.569v405.224h-559.058v-405.224zM577.013 744.72c-13.018 0-23.606 10.587-23.606 23.603s10.588 23.603 23.606 23.603c13.018 0 23.606-10.587 23.606-23.603s-10.588-23.603-23.606-23.603zM318.987 744.72c-13.018 0-23.606 10.587-23.606 23.603s10.588 23.603 23.606 23.603c13.018 0 23.606-10.587 23.606-23.603s-10.588-23.603-23.606-23.603zM569.216 874.933c-36.667 16.313-77.784 25.456-121.216 25.456s-84.549-9.142-121.216-25.456l-44.691 80.611c-1.524 2.749-4.426 4.456-7.578 4.456-1.468 0-2.872-0.365-4.175-1.087-4.171-2.31-5.683-7.583-3.37-11.751l44.207-79.743c-84.702-43.971-142.065-127.506-142.685-223.453h559.015c-0.62 95.947-57.983 179.483-142.684 223.453l44.208 79.743c2.31 4.168 0.799 9.441-3.37 11.751-1.302 0.722-2.709 1.087-4.175 1.087-3.152 0-6.057-1.708-7.581-4.456l-44.69-80.611z" />
<glyph unicode="&#xe901;" glyph-name="anr" d="M265.969 143.174c46.936-36.511 102.388-58.020 160.465-64.809-3.953-12.923-6.156-27.3-6.156-42.449 0-56.281 30.417-101.906 67.938-101.906s67.938 45.625 67.938 101.906c0 17.828-3.052 34.587-8.415 49.165 69.76 15.718 137.533 51.812 193.537 107.816 42.439 42.439 73.445 91.637 92.815 143.336 18.005-19.205 50.004-31.98 86.479-31.98 56.281 0 101.906 30.417 101.906 67.938s-45.625 67.938-101.906 67.938c-24.676 0-47.304-5.847-64.936-15.576 8.533 72.066-4.521 144.353-39.668 206.257 24.239 7.277 48.553 21.604 69.428 42.48 53.063 53.063 63.817 128.34 24.020 168.137s-115.075 29.043-168.137-24.020c-20.875-20.875-35.203-45.189-42.48-69.428-61.904 35.147-134.192 48.202-206.257 39.668 9.729 17.632 15.576 40.26 15.576 64.936 0 56.281-30.417 101.906-67.938 101.906s-67.938-45.625-67.938-101.906c0-36.475 12.775-68.474 31.98-86.479-51.699-19.37-100.897-50.376-143.336-92.815-56.003-56.003-92.097-123.777-107.816-193.537-14.578 5.363-31.337 8.415-49.165 8.415-56.281 0-101.906-30.417-101.906-67.938s45.625-67.938 101.906-67.938c15.149 0 29.526 2.204 42.449 6.156 6.587-56.349 27.031-110.228 61.59-156.254l-173.948-236.187 231.976 177.166z" />
<glyph unicode="&#xe902;" glyph-name="crash" horiz-adv-x="896" d="M34.711 460.588c0 35.414 28.453 64.123 63.488 64.123h699.603c35.063 0 63.488-28.395 63.488-64.123v-460.465c0-35.414-28.453-64.123-63.488-64.123h-699.603c-35.063 0-63.488 28.395-63.488 64.123v460.465zM328.409 524.711l-64.44-273.163 177.391-51.591-96.781-263.957h134.449l184.871 327.312-147.93 59.906 92.32 201.493h-279.88zM416 911.399c0 26.842 21.306 48.601 48 48.601 26.51 0 48-20.996 48-48.601v-222.798c0-26.842-21.306-48.601-48-48.601-26.51 0-48 20.996-48 48.601v222.798zM763.324 854.202c18.98 18.98 49.431 19.301 68.307 0.425 18.745-18.745 19.095-48.788-0.425-68.307l-157.542-157.542c-18.98-18.98-49.431-19.301-68.307-0.425-18.745 18.745-19.095 48.788 0.425 68.307l157.542 157.542zM93.782 786.32c-18.98 18.98-19.301 49.431-0.425 68.307 18.745 18.745 48.788 19.095 68.307-0.425l157.542-157.542c18.98-18.98 19.301-49.431 0.425-68.307-18.745-18.745-48.788-19.095-68.307 0.425l-157.542 157.542z" />
<glyph unicode="&#xe903;" glyph-name="envelope" horiz-adv-x="1463" d="M0 19.354v850.637l504.999-430.080-504.999-420.557zM1462.857 19.354l-504.999 420.557 504.999 430.387v-850.944zM731.429 345.6l-698.41 586.65c18.704 17.203 43.781 27.75 71.471 27.75h1253.878c27.69 0 52.767-10.547 71.471-27.75l-698.41-586.65zM912.405 398.336l517.433-434.688c-18.704-17.203-43.781-27.648-71.471-27.648h-1253.878c-27.69 0-52.767 10.445-71.471 27.648l517.433 434.688 180.976-155.136 180.976 155.136z" />
<glyph unicode="&#xe904;" glyph-name="error" d="M512 515.882l135.681 135.681c18.792 18.791 49.090 18.96 67.966 0.084 18.745-18.745 18.472-49.41-0.084-67.966l-135.681-135.681 135.681-135.681c18.792-18.791 18.96-49.090 0.084-67.966-18.745-18.745-49.41-18.472-67.966 0.084l-135.681 135.681-135.681-135.681c-18.792-18.791-49.090-18.96-67.966-0.084-18.745 18.745-18.472 49.41 0.084 67.966l135.681 135.681-135.681 135.681c-18.792 18.791-18.96 49.090-0.084 67.966 18.745 18.745 49.41 18.472 67.966-0.084l135.681-135.681zM512-64c-282.77 0-512 229.23-512 512s229.23 512 512 512c282.77 0 512-229.23 512-512s-229.23-512-512-512zM512 32c229.75 0 416 186.25 416 416s-186.25 416-416 416c-229.75 0-416-186.25-416-416s186.25-416 416-416z" />
<glyph unicode="&#xe905;" glyph-name="export" horiz-adv-x="832" d="M607.912 960h-95.912v-191.688c0-71.103 57.447-128.312 128.312-128.312h191.688v-576.38c0-70.483-57.187-127.62-128.177-127.62h-575.647c-70.79 0-128.177 57.249-128.177 127.62v768.76c0 70.483 57.187 127.62 128.177 127.62h479.735zM576 960l256-256h-191.4c-35.677 0-64.6 28.375-64.6 64.6v191.4zM384 188.8l-144 144-48-48 224-224 224 224-48 48-144-144v387.2h-64v-387.2z" />
<glyph unicode="&#xe906;" glyph-name="hourglass" horiz-adv-x="751" d="M0 960h750.933v-68.267h-750.933v68.267zM0 4.267h750.933v-68.267h-750.933v68.267zM0 823.467l273.067-375.467-273.067-375.467h750.933l-273.067 375.467 273.067 375.467h-750.933z" />
<glyph unicode="&#xe907;" glyph-name="ios" horiz-adv-x="896" d="M598.601 796.503c35.759 43.285 59.827 103.542 53.261 163.497-51.544-2.072-113.873-34.348-150.844-77.609-33.133-38.31-62.151-99.627-54.322-158.396 57.452-4.445 116.144 29.195 151.905 72.507zM727.461 415.981c1.439-154.964 135.944-206.532 137.434-207.19-1.137-3.637-21.492-73.489-70.864-145.642-42.68-62.38-86.976-124.531-156.755-125.818-68.565-1.263-90.613 40.659-169.002 40.659-78.366 0-102.862-39.372-167.766-41.923-67.355-2.549-118.645 67.455-161.68 129.607-87.936 127.133-155.137 359.246-64.903 515.927 44.826 77.808 124.935 127.080 211.885 128.343 66.141 1.262 128.57-44.497 169.002-44.497 40.407 0 116.272 55.029 196.025 46.947 33.388-1.39 127.107-13.487 187.287-101.574-4.849-3.006-111.827-65.283-110.664-194.839z" />
<glyph unicode="&#xe908;" glyph-name="keyboard" horiz-adv-x="1243" d="M0 594.87v-513.168c0-79.86 65.498-145.702 146.293-145.702h950.842c81.192 0 146.293 65.233 146.293 145.702v513.168c0 79.86-65.498 145.702-146.293 145.702h-950.842c-81.192 0-146.293-65.233-146.293-145.702zM365.714 228.571h512v-146.286h-512v146.286zM146.286 228.571h146.286v-146.286h-146.286v146.286zM146.286 448h219.429v-146.286h-219.429v146.286zM438.857 448h146.286v-146.286h-146.286v146.286zM658.286 448h146.286v-146.286h-146.286v146.286zM877.714 448h219.429v-146.286h-219.429v146.286zM950.857 228.571h146.286v-146.286h-146.286v146.286zM585.143 960h73.143v-219.429h-73.143v219.429z" />
<glyph unicode="&#xe909;" glyph-name="logo" horiz-adv-x="512" d="M162.062 676.121c59.042 0 106.905-49.849 106.905-111.348 0-9.88-1.256-19.548-3.568-28.644l-103.337-441.748-103.332 441.748c-2.317 9.102-3.568 18.748-3.568 28.644 0 61.499 47.858 111.348 106.9 111.348zM240.331 809.457c0-13.808 10.745-24.995 23.998-24.995s24.003 11.188 24.003 24.995c0 13.802-10.751 24.995-24.003 24.995s-23.998-11.193-23.998-24.995zM162.062 696.846c-12.075 0-23.755-1.759-34.817-5.044-10.693 8.323-80.707 67.948-37.862 172.047 0 0-16.139 39.701-33.455 43.563l-33.128 7.266c0 0 12.26 8.878 26.13 11.286l-48.93 34.037c87.979-20.523 160.458-16.215 200.436-16.215s147.981-12.941 157.328-134.611c17.744-13.758 154.235-112.541 154.235-112.541l-187.965 22.729c0 0-30.626-25.97-43.098-29.222 0 0 108.008-44.881 132.407-186.034v-307.583h24.43c2.94 33.024 19 62.077 42.707 81.456-12.93-27.958-20.177-59.31-20.177-92.426 0-33.111 7.246-64.462 20.177-92.42-23.702 19.374-39.767 48.433-42.707 81.456h-24.43v-238.589c0 0-98.835 166.85-191.2 327.666l62.535 267.359c2.744 10.806 4.18 22.065 4.18 33.748 0 72.937-56.767 132.073-126.797 132.073z" />
<glyph unicode="&#xe90a;" glyph-name="menu" horiz-adv-x="1170" d="M109.714 704c60.594 0 109.714 49.121 109.714 109.714s-49.121 109.714-109.714 109.714c-60.594 0-109.714-49.121-109.714-109.714s49.121-109.714 109.714-109.714zM109.714 338.286c60.594 0 109.714 49.121 109.714 109.714s-49.121 109.714-109.714 109.714c-60.594 0-109.714-49.121-109.714-109.714s49.121-109.714 109.714-109.714zM109.714-27.429c60.594 0 109.714 49.121 109.714 109.714s-49.121 109.714-109.714 109.714c-60.594 0-109.714-49.121-109.714-109.714s49.121-109.714 109.714-109.714zM365.714 813.714c0 40.396 32.537 73.143 72.819 73.143h658.933c40.217 0 72.819-32.466 72.819-73.143 0-40.396-32.537-73.143-72.819-73.143h-658.933c-40.217 0-72.819 32.466-72.819 73.143zM365.714 448c0 40.396 32.537 73.143 72.819 73.143h658.933c40.217 0 72.819-32.466 72.819-73.143 0-40.396-32.537-73.143-72.819-73.143h-658.933c-40.217 0-72.819 32.466-72.819 73.143zM365.714 82.286c0 40.396 32.537 73.143 72.819 73.143h658.933c40.217 0 72.819-32.466 72.819-73.143 0-40.396-32.537-73.143-72.819-73.143h-658.933c-40.217 0-72.819 32.466-72.819 73.143z" />
<glyph unicode="&#xe90b;" glyph-name="msg" horiz-adv-x="1097" d="M0 814.298c0 80.469 65.346 145.702 145.692 145.702h805.759c80.464 0 145.692-65.841 145.692-145.702v-513.168c0-80.469-65.346-145.702-145.692-145.702h-951.451v658.87zM0 155.429h292.571l-292.571-219.429v219.429zM804.571 484.571c40.396 0 73.143 32.747 73.143 73.143s-32.747 73.143-73.143 73.143c-40.396 0-73.143-32.747-73.143-73.143s32.747-73.143 73.143-73.143zM548.571 484.571c40.396 0 73.143 32.747 73.143 73.143s-32.747 73.143-73.143 73.143c-40.396 0-73.143-32.747-73.143-73.143s32.747-73.143 73.143-73.143zM292.571 484.571c40.396 0 73.143 32.747 73.143 73.143s-32.747 73.143-73.143 73.143c-40.396 0-73.143-32.747-73.143-73.143s32.747-73.143 73.143-73.143z" />
<glyph unicode="&#xe90c;" glyph-name="overview" d="M826.643 129.089l-90.934 90.1c-57.695-56.416-136.641-91.189-223.709-91.189-87.349 0-166.523 34.998-224.266 91.735l-91.363-89.67c-74.674 74.136-123.374 174.399-131.246 285.935h126.875v64h-126.875c7.032 99.645 46.653 190.294 108.268 261.352l99.744-99.744 45.255 45.255-99.744 99.744c71.059 61.615 161.707 101.235 261.352 108.268v-126.875h64v126.875c99.243-7.004 189.561-46.333 260.49-107.522l-100.49-100.49 45.255-45.255 100.604 100.604c62.042-71.187 101.955-162.164 109.016-262.212h-126.875v-64h126.875c-7.906-112.026-57.001-212.68-132.232-286.911zM512-64c282.77 0 512 229.23 512 512s-229.23 512-512 512c-282.77 0-512-229.23-512-512s229.23-512 512-512zM307.655 607.090c-12.497 12.497-12.497 32.758 0 45.255s32.758 12.497 45.255 0l191.017-148.569c4.506-2.673 8.754-5.948 12.629-9.823 24.994-24.994 24.994-65.516 0-90.51s-65.516-24.994-90.51 0c-3.875 3.875-7.149 8.123-9.823 12.629l-148.569 191.017z" />
<glyph unicode="&#xe90d;" glyph-name="rectangle" horiz-adv-x="1463" d="M731.46 477.495l-295.068-295.068-118.036 118.036 413.11 413.11 413.11-413.11-118.036-118.036-295.068 295.068z" />
<glyph unicode="&#xe90e;" glyph-name="retract" horiz-adv-x="931" d="M558.545 308.364h372.364l-465.455 465.455-465.455-465.455h372.364v-372.364h186.182v372.364zM0 960h930.909v-186.182h-930.909v186.182z" />
<glyph unicode="&#xe90f;" glyph-name="right" horiz-adv-x="1339" d="M512 290.462l-315.077 315.077-157.538-157.538 472.615-472.615 787.692 787.692-157.538 157.538-630.154-630.154z" />
<glyph unicode="&#xe910;" glyph-name="search" d="M770.856 98.126c-80.707-61.565-181.512-98.126-290.856-98.126-265.097 0-480 214.903-480 480s214.903 480 480 480c265.097 0 480-214.903 480-480 0-108.756-36.169-209.063-97.135-289.551l133.885-133.885c24.966-24.966 24.751-65.66 0.202-90.209l-2.16-2.16c-24.855-24.855-64.824-25.182-90.209 0.202l-133.729 133.729zM481.171 128c193.757 0 350.829 157.071 350.829 350.829s-157.071 350.829-350.829 350.829c-193.757 0-350.829-157.071-350.829-350.829s157.071-350.829 350.829-350.829z" />
<glyph unicode="&#xe911;" glyph-name="search2" d="M661.42 208.070c-68.797-50.347-153.637-80.070-245.42-80.070-229.75 0-416 186.25-416 416s186.25 416 416 416c229.75 0 416-186.25 416-416 0-91.783-29.724-176.623-80.070-245.42l250.243-250.243c24.919-24.919 25.033-65.207-0.134-90.375-24.994-24.994-65.757-24.753-90.375-0.134l-250.243 250.243zM416 224c176.731 0 320 143.269 320 320s-143.269 320-320 320c-176.731 0-320-143.269-320-320s143.269-320 320-320z" />
<glyph unicode="&#xe912;" glyph-name="setting" d="M137.327 532.498l-116.732 88.364 96 166.277 134.973-56.946c41.372 38.2 91.163 67.417 146.275 84.554l18.157 145.254h192l18.157-145.254c55.112-17.136 104.903-46.353 146.275-84.554l134.973 56.946 96-166.277-116.732-88.364c6.105-27.188 9.327-55.467 9.327-84.498s-3.222-57.31-9.327-84.498l116.732-88.364-96-166.277-134.973 56.946c-41.372-38.2-91.163-67.417-146.275-84.554l-18.157-145.254h-192l-18.157 145.254c-55.112 17.136-104.903 46.353-146.275 84.554l-134.973-56.946-96 166.277 116.732 88.364c-6.105 27.188-9.327 55.467-9.327 84.498s3.222 57.31 9.327 84.498zM512 181.703c147.072 0 266.297 119.225 266.297 266.297s-119.225 266.297-266.297 266.297c-147.072 0-266.297-119.225-266.297-266.297s119.225-266.297 266.297-266.297zM512 320c70.692 0 128 57.308 128 128s-57.308 128-128 128c-70.692 0-128-57.308-128-128s57.308-128 128-128z" />
<glyph unicode="&#xe913;" glyph-name="stack" horiz-adv-x="1138" d="M853.334 562.152l284.444-113.778-568.889-227.556-568.889 227.556 284.444 113.778 284.444-113.778 284.444 113.778zM853.334 277.707l284.444-113.778-568.889-227.556-568.889 227.556 284.444 113.778 284.444-113.778 284.444 113.778zM568.89 960.374l568.889-227.556-568.889-227.556-568.889 227.556 568.889 227.556z" />
</font>
</defs>
</svg>
